<svg width="18" height="17" viewBox="0 0 18 17" fill="none" xmlns="http://www.w3.org/2000/svg">
<path d="M8.75599 1.53039C5.15367 1.86351 2.33318 4.89404 2.33318 8.58333C2.33318 9.375 2.46306 10.1363 2.70266 10.8472C2.79282 11.1147 2.83791 11.2484 2.84604 11.3512C2.85407 11.4527 2.848 11.5238 2.82289 11.6225C2.79747 11.7223 2.74135 11.8262 2.62909 12.034L1.26605 14.557C1.07162 14.9168 0.974408 15.0968 0.996165 15.2356C1.01512 15.3566 1.08631 15.4631 1.19083 15.5269C1.31083 15.6001 1.51427 15.579 1.92113 15.537L6.18865 15.0958C6.31784 15.0825 6.38252 15.0758 6.4414 15.0781C6.49933 15.0803 6.54022 15.0857 6.59671 15.0987C6.65414 15.112 6.72637 15.1398 6.87081 15.1954C7.66086 15.4998 8.5192 15.6667 9.41652 15.6667C13.1089 15.6667 16.1413 12.8415 16.4703 9.23495M15.7676 2.23223C16.7439 3.20854 16.7439 4.79146 15.7676 5.76777C14.7913 6.74408 13.2084 6.74408 12.2321 5.76777C11.2558 4.79146 11.2558 3.20854 12.2321 2.23223C13.2084 1.25592 14.7913 1.25592 15.7676 2.23223Z" stroke="#522080" stroke-width="2" stroke-linecap="round" stroke-linejoin="round"/>
</svg>
