<svg width="17" height="16" viewBox="0 0 17 16" fill="none" xmlns="http://www.w3.org/2000/svg">
<path d="M14.6668 7.99998H6.75016M13.0002 10.5L15.5002 7.99998L13.0002 5.49998M8.8335 3.83331V2.99998C8.8335 2.55795 8.6579 2.13403 8.34534 1.82147C8.03278 1.50891 7.60886 1.33331 7.16683 1.33331H3.00016C2.55814 1.33331 2.13421 1.50891 1.82165 1.82147C1.50909 2.13403 1.3335 2.55795 1.3335 2.99998V13C1.3335 13.442 1.50909 13.8659 1.82165 14.1785C2.13421 14.4911 2.55814 14.6666 3.00016 14.6666H7.16683C7.60886 14.6666 8.03278 14.4911 8.34534 14.1785C8.6579 13.8659 8.8335 13.442 8.8335 13V12.1666" stroke="#522080" stroke-width="2" stroke-linecap="round" stroke-linejoin="round"/>
</svg>
