<svg width="21" height="21" viewBox="0 0 21 21" fill="none" xmlns="http://www.w3.org/2000/svg">
<g clip-path="url(#clip0_1_3440)">
<path d="M10.5 21C16.299 21 21 16.299 21 10.5C21 4.70101 16.299 0 10.5 0C4.70101 0 0 4.70101 0 10.5C0 16.299 4.70101 21 10.5 21Z" fill="#F0F0F0"/>
<path d="M10.5001 -0.000610352C6.33727 -0.000610352 2.74037 2.42198 1.04199 5.93419H19.9582C18.2599 2.42198 14.6629 -0.000610352 10.5001 -0.000610352Z" fill="black"/>
<path d="M10.5001 21C6.33727 21 2.74037 18.5775 1.04199 15.0652H19.9582C18.2599 18.5775 14.6629 21 10.5001 21Z" fill="#496E2D"/>
<path d="M20.5042 7.30371H0.495838C0.174193 8.31142 0 9.38501 0 10.4994C0 11.6137 0.174193 12.6873 0.495838 13.695H20.5041C20.8258 12.6873 21 11.6137 21 10.4994C21 9.38501 20.8258 8.31142 20.5042 7.30371Z" fill="#A2001D"/>
<path d="M13.7696 4.85195L12.5261 4.27802L10.5 8.86565L8.47394 4.27802L7.23047 4.85195L9.74587 10.4998L7.23047 16.1476L8.47394 16.7215L10.5 12.1339L12.5261 16.7215L13.7696 16.1476L11.2542 10.4998L13.7696 4.85195Z" fill="#F0F0F0"/>
<path d="M11.3444 5.39278C10.863 4.86708 10.4998 4.56488 10.4998 4.56488C10.4998 4.56488 10.1366 4.86704 9.65527 5.39278V15.6065C10.1366 16.1323 10.4998 16.4345 10.4998 16.4345C10.4998 16.4345 10.863 16.1323 11.3444 15.6065V5.39278Z" fill="#F0F0F0"/>
<path d="M8.21777 7.35196V13.6484C8.72645 14.5497 9.34902 15.2884 9.81562 15.7782V5.22211C9.34902 5.71187 8.72641 6.45069 8.21777 7.35196Z" fill="#A2001D"/>
<path d="M12.7829 7.35245C12.2742 6.45114 11.6517 5.71236 11.1851 5.2226V15.7787C11.6516 15.2889 12.2742 14.5502 12.7829 13.6488V7.35245Z" fill="#A2001D"/>
<path d="M12.7827 7.35077V13.6472C13.2977 12.7346 13.6958 11.6555 13.6958 10.499C13.6958 9.34249 13.2977 8.26337 12.7827 7.35077Z" fill="black"/>
<path d="M8.21725 7.35077V13.6472C7.7023 12.7346 7.3042 11.6555 7.3042 10.499C7.3042 9.34249 7.7023 8.26337 8.21725 7.35077Z" fill="black"/>
</g>
<defs>
<clipPath id="clip0_1_3440">
<rect width="21" height="21" fill="white"/>
</clipPath>
</defs>
</svg>
