<svg width="25" height="38" viewBox="0 0 25 38" fill="none" xmlns="http://www.w3.org/2000/svg">
<path d="M20.524 17.8969C20.0819 16.8496 19.4403 15.8984 18.6349 15.0961C17.832 14.2915 16.8809 13.65 15.8341 13.207C15.8248 13.2023 15.8154 13.2 15.806 13.1953C17.2662 12.1406 18.2154 10.4227 18.2154 8.48438C18.2154 5.27344 15.6138 2.67188 12.4029 2.67188C9.19195 2.67188 6.59039 5.27344 6.59039 8.48438C6.59039 10.4227 7.53961 12.1406 8.99977 13.1977C8.99039 13.2023 8.98102 13.2047 8.97164 13.2094C7.92164 13.6523 6.97945 14.2875 6.17086 15.0984C5.36627 15.9013 4.72478 16.8524 4.2818 17.8992C3.84661 18.924 3.61191 20.0228 3.59039 21.1359C3.58977 21.161 3.59415 21.1858 3.60329 21.2091C3.61244 21.2324 3.62615 21.2537 3.64362 21.2716C3.6611 21.2895 3.68198 21.3037 3.70504 21.3134C3.7281 21.3231 3.75287 21.3281 3.77789 21.3281H5.18414C5.28727 21.3281 5.3693 21.2461 5.37164 21.1453C5.41852 19.3359 6.14508 17.6414 7.42945 16.357C8.75836 15.0281 10.5232 14.2969 12.4029 14.2969C14.2826 14.2969 16.0474 15.0281 17.3763 16.357C18.6607 17.6414 19.3873 19.3359 19.4341 21.1453C19.4365 21.2484 19.5185 21.3281 19.6216 21.3281H21.0279C21.0529 21.3281 21.0777 21.3231 21.1007 21.3134C21.1238 21.3037 21.1447 21.2895 21.1622 21.2716C21.1796 21.2537 21.1933 21.2324 21.2025 21.2091C21.2116 21.1858 21.216 21.161 21.2154 21.1359C21.192 20.0156 20.9599 18.9258 20.524 17.8969ZM12.4029 12.5156C11.3271 12.5156 10.3146 12.0961 9.55289 11.3344C8.79117 10.5727 8.37164 9.56016 8.37164 8.48438C8.37164 7.40859 8.79117 6.39609 9.55289 5.63437C10.3146 4.87266 11.3271 4.45312 12.4029 4.45312C13.4787 4.45312 14.4912 4.87266 15.2529 5.63437C16.0146 6.39609 16.4341 7.40859 16.4341 8.48438C16.4341 9.56016 16.0146 10.5727 15.2529 11.3344C14.4912 12.0961 13.4787 12.5156 12.4029 12.5156Z" fill="black"/>
</svg>
